# xmcd
#
# Track frame offsets:
#	150
#	27502
#	53346
#	76018
#	102798
#	126966
#	152706
#	180162
#
# Disc length: 2751 seconds
#
# Revision: 0
# Processed by: cddbd v1.4PL0 Copyright (c) Steve Scherf et al.
# Submitted via: audiograbber 1.81.03
#
DISCID=4f0abd08
DTITLE=Kovács Apollónia - Cigánydalok
DYEAR=1900
DGENRE=Cigánydalok
TTITLE0=Fözök neked száraz babot
TTITLE1=Kertem alatt jár a postás
TTITLE2=Adjon Isten szekeret
TTITLE3=Minden ablak alatt
TTITLE4=Fejik a fekete kecskét
TTITLE5=Sej haj Rózika
TTITLE6=Elvitték a cigányokat
TTITLE7=Piros volt a paradicsom
EXTD=
EXTT0=Kovács Apollónia
EXTT1=Madarász Katalin - Gál Gabriella
EXTT2=Kovács Apollónia
EXTT3=Kovács Apollónia
EXTT4=Kovács Apollónia
EXTT5=Madarász Katalin
EXTT6=Kovács Apollónia
EXTT7=Kovács Apollónia
PLAYORDER=
